<svg version="1.0" xmlns="http://www.w3.org/2000/svg"
 width="1236.000000pt" height="622.000000pt" viewBox="0 0 1236.000000 622.000000"
 preserveAspectRatio="xMidYMid meet">

<g transform="translate(0.000000,622.000000) scale(0.100000,-0.100000)"
fill="#000000" stroke="none">
<path d="M880 5985 c-289 -49 -477 -203 -556 -455 -39 -125 -44 -208 -44 -777
l0 -553 395 0 395 0 0 489 c-1 467 0 492 20 547 11 32 20 59 20 60 0 1 24 12
53 25 50 23 61 24 332 26 154 2 292 3 306 3 25 0 26 3 38 88 26 188 108 360
241 505 l52 57 -588 -1 c-427 -1 -610 -5 -664 -14z"/>
<path d="M2625 5985 c-263 -36 -424 -141 -527 -339 -37 -73 -54 -126 -73 -239
-14 -77 -16 -353 -19 -2220 l-3 -2133 -25 -55 c-46 -100 -98 -111 -485 -107
-277 3 -290 4 -334 26 -38 19 -51 32 -70 75 l-24 52 -3 493 -3 492 -389 0
-390 0 0 -542 c0 -559 5 -643 44 -768 88 -283 281 -430 611 -469 117 -14 1083
-14 1195 -1 231 29 394 111 500 255 65 88 99 165 132 302 9 36 13 601 17 2218
l6 2170 23 52 c20 44 31 55 75 75 51 23 58 23 372 23 312 0 321 -1 370 -23 40
-18 54 -31 70 -65 19 -40 20 -66 23 -549 l3 -508 394 0 395 0 0 551 c0 341 -4
577 -11 622 -27 185 -88 317 -194 422 -112 113 -244 169 -455 195 -124 15
-1111 11 -1225 -5z"/>
<path d="M5436 5319 c-258 -34 -433 -163 -507 -375 -52 -146 -50 -65 -50
-2154 0 -2134 -3 -2022 60 -2185 70 -181 205 -291 421 -343 53 -12 159 -16
580 -19 641 -6 725 2 882 84 64 34 148 108 189 169 56 81 95 201 109 335 14
132 13 3773 0 3909 -13 123 -47 234 -95 315 -44 73 -65 96 -130 145 -69 51
-119 75 -211 102 -77 22 -90 22 -629 24 -302 1 -581 -2 -619 -7z m928 -608
c38 -17 46 -26 65 -76 l21 -56 -2 -1807 -3 -1807 -21 -46 c-37 -79 -58 -83
-389 -87 -304 -4 -377 4 -419 43 -58 53 -55 -31 -53 1930 2 1700 3 1802 20
1841 19 44 55 70 111 81 20 5 169 7 332 6 266 -2 299 -4 338 -22z"/>
<path d="M7880 5311 c-189 -51 -336 -187 -402 -371 l-23 -65 -3 -2317 -2
-2318 345 0 345 0 0 1124 0 1123 533 1 c292 0 538 1 545 1 9 1 12 65 12 286
l0 285 -545 0 -545 0 0 835 0 835 685 0 685 0 1 38 c1 47 0 544 0 555 -1 4
-353 7 -783 6 -713 -1 -789 -2 -848 -18z"/>
<path d="M9840 5035 l0 -295 398 0 398 0 1 -2122 c1 -1168 2 -2180 2 -2250 l1
-128 335 0 335 0 0 2250 0 2250 400 0 400 0 0 295 0 295 -1135 0 -1135 0 0
-295z"/>
<path d="M3718 1528 c-3 -479 -4 -505 -23 -545 -16 -34 -30 -47 -70 -65 -49
-22 -59 -23 -357 -23 -170 0 -308 -1 -308 -2 0 -1 -5 -37 -11 -79 -13 -93 -51
-218 -89 -294 -36 -71 -120 -189 -165 -233 l-35 -34 31 -7 c17 -3 123 -6 234
-6 l203 0 215 90 c119 50 218 90 220 90 3 0 -12 -40 -33 -90 l-38 -90 137 0
c493 0 737 143 839 495 38 131 42 198 42 754 l0 541 -395 0 -394 0 -3 -502z"/>
</g>
</svg>
